<?xml version="1.0" standalone="no"?>
<!DOCTYPE svg PUBLIC "-//W3C//DTD SVG 20010904//EN"
 "http://www.w3.org/TR/2001/REC-SVG-20010904/DTD/svg10.dtd">
<svg version="1.0" xmlns="http://www.w3.org/2000/svg"
 width="2024.000000pt" height="578.000000pt" viewBox="0 0 2024.000000 578.000000"
 preserveAspectRatio="xMidYMid meet">
<metadata>
Created by potrace 1.16, written by Peter Selinger 2001-2019
</metadata>
<g transform="translate(0.000000,578.000000) scale(0.100000,-0.100000)"
fill="#000000" stroke="none">
<path d="M17008 4643 l-288 -166 0 -191 1 -191 420 -240 c231 -132 425 -240
432 -240 7 0 84 40 170 90 l157 90 0 341 0 341 -289 166 c-159 92 -295 167
-303 167 -7 -1 -142 -76 -300 -167z"/>
<path d="M16720 3898 l0 -103 286 -165 c157 -91 291 -166 299 -168 13 -3 171
83 180 99 5 7 -739 439 -756 439 -5 0 -9 -46 -9 -102z"/>
<path d="M14545 3850 c-352 -46 -617 -274 -701 -605 -23 -94 -24 -303 -1 -397
63 -256 235 -454 479 -551 118 -48 192 -60 348 -61 210 -1 346 35 490 129 71
47 164 137 159 154 -5 13 -221 211 -231 211 -4 0 -28 -20 -54 -44 -189 -182
-510 -180 -694 4 -232 232 -167 652 124 795 187 92 420 60 570 -80 26 -25 51
-45 55 -45 12 0 226 200 229 214 2 7 -28 42 -65 77 -168 158 -438 234 -708
199z"/>
<path d="M15965 3849 c-281 -35 -470 -188 -506 -409 -31 -192 47 -349 218
-438 89 -46 158 -68 357 -116 78 -19 166 -44 197 -55 132 -50 168 -154 80
-234 -52 -47 -118 -62 -261 -61 -158 2 -309 43 -434 119 -32 19 -62 35 -66 35
-4 0 -35 -61 -69 -136 -46 -103 -59 -140 -50 -150 6 -7 52 -33 102 -58 164
-81 390 -124 591 -113 284 16 475 117 563 295 37 75 38 78 38 192 0 110 -1
118 -33 182 -68 139 -183 203 -507 283 -234 59 -305 88 -343 145 -39 58 -17
127 58 178 51 35 106 46 220 45 126 -1 226 -25 347 -83 46 -21 84 -36 87 -32
20 32 106 268 102 279 -8 20 -115 68 -217 97 -145 42 -318 54 -474 35z"/>
<path d="M1740 3046 l0 -786 190 0 190 0 0 215 0 215 161 -2 162 -3 146 -212
146 -212 203 -1 c157 0 201 3 196 12 -4 7 -81 117 -171 246 -90 128 -163 237
-163 240 0 4 21 18 47 32 240 127 334 463 204 726 -70 141 -194 235 -378 286
-73 21 -103 22 -505 26 l-428 3 0 -785z m740 473 c74 -12 144 -40 179 -72 40
-37 71 -115 71 -181 0 -86 -18 -134 -70 -187 -71 -71 -110 -81 -342 -87 l-198
-4 0 271 0 271 148 0 c81 0 176 -5 212 -11z"/>
<path d="M3380 3045 l0 -785 615 0 615 0 0 150 0 150 -430 0 -430 0 0 175 0
175 365 0 365 0 0 145 0 145 -365 0 -365 0 0 165 0 165 415 0 415 0 0 150 0
150 -600 0 -600 0 0 -785z"/>
<path d="M4880 3045 l0 -785 580 0 580 0 0 150 0 150 -395 0 -395 0 0 635 0
635 -185 0 -185 0 0 -785z"/>
<path d="M6236 3822 c5 -5 74 -46 154 -92 80 -45 160 -91 178 -102 l32 -20 0
111 0 111 -187 0 c-103 0 -183 -4 -177 -8z"/>
<path d="M7113 3062 c-188 -422 -345 -775 -349 -785 -6 -16 6 -17 186 -15
l193 3 66 160 66 160 361 3 361 2 20 -52 c11 -29 42 -104 68 -165 l47 -113
195 0 c182 0 195 1 189 18 -4 9 -161 362 -349 784 l-342 767 -185 1 -185 0
-342 -768z m651 84 c59 -142 105 -260 103 -262 -2 -3 -108 -3 -235 -2 l-230 3
116 282 c104 249 118 279 128 260 7 -12 60 -138 118 -281z"/>
<path d="M8680 3045 l0 -786 508 3 c482 4 511 5 584 25 211 59 330 184 345
361 6 80 -9 168 -39 231 -30 62 -112 143 -175 172 l-51 23 62 57 c45 41 71 76
92 121 26 57 29 73 29 168 -1 94 -3 111 -28 161 -51 105 -154 179 -305 222
-73 20 -104 21 -549 25 l-473 3 0 -786z m885 470 c71 -36 99 -76 99 -144 -1
-86 -57 -148 -154 -170 -25 -6 -141 -11 -257 -11 l-213 0 0 181 0 181 233 -4
232 -3 60 -30z m-21 -605 c132 -19 196 -78 196 -179 0 -80 -24 -119 -95 -156
l-59 -30 -273 -3 -273 -4 0 191 0 191 218 0 c119 0 248 -5 286 -10z"/>
<path d="M10000 3825 c0 -2 135 -229 300 -504 l300 -499 0 -281 0 -281 190 0
190 0 0 279 0 279 300 498 c165 274 300 502 300 506 0 5 -82 7 -182 6 l-182
-3 -200 -332 c-111 -182 -204 -334 -207 -337 -3 -3 -98 147 -210 334 l-204
340 -197 0 c-109 0 -198 -2 -198 -5z"/>
<path d="M11630 3680 l0 -150 250 0 250 0 0 -635 0 -635 185 0 185 0 0 635 0
635 250 0 250 0 0 150 0 150 -685 0 -685 0 0 -150z"/>
<path d="M13196 3821 c9 -9 281 -169 335 -197 l29 -15 0 111 0 110 -187 0
c-114 0 -183 -4 -177 -9z"/>
<path d="M6230 3006 l0 -746 185 0 185 0 -2 641 -3 641 -120 70 c-66 38 -148
85 -182 105 l-63 35 0 -746z"/>
<path d="M13190 3000 l0 -740 185 0 185 0 0 639 0 638 -176 102 c-97 55 -180
101 -185 101 -5 0 -9 -306 -9 -740z"/>
</g>
</svg>
